<?xml version="1.0" encoding="UTF-8"?>
<svg width="24px" height="24px" viewBox="0 0 24 24" version="1.1" xmlns="http://www.w3.org/2000/svg" xmlns:xlink="http://www.w3.org/1999/xlink">
    <title>UI/Forms and information/group</title>
    <g id="UI/Forms-and-information/group" stroke="none" stroke-width="1" fill="none" fill-rule="evenodd">
        <polygon id="Bounding-box" points="0 0 24 0 24 12 24 24 0 24"></polygon>
        <path d="M14.5,16 C16.3927,16 17.9345,17.5024 17.998,19.3797 L18,19.5 L18,22 L16,22 L16,19.5 C16,18.7012 15.3755,18.0482 14.5881,18.0025 L14.5,18 L9.5,18 C8.70116,18 8.04817,18.6245 8.00255,19.4119 L8,19.5 L8,22 L6,22 L6,19.5 C6,17.6073 7.50239,16.0655 9.37967,16.002 L9.5,16 L14.5,16 Z M16.8997,9.99881 L20.5,10 L20.6203,10.002 C22.435,10.0633 23.8994,11.5061 23.995,13.3119 L24,13.5 L24,16 L22,16 L22,13.5 L21.9975,13.4119 C21.9545,12.6708 21.3736,12.074 20.6394,12.0064 L20.5,12 L16.8997,12.0012 C16.9655,11.6777 17,11.3429 17,11 C17,10.6571 16.9655,10.3223 16.8997,9.99881 Z M7.10026,9.99881 C7.03451,10.3223 7,10.6571 7,11 C7,11.3429 7.03451,11.6777 7.10026,12.0012 L3.5,12 C2.70116,12 2.04817,12.6245 2.00255,13.4119 L2,13.5 L2,16 L0,16 L0,13.5 C0,11.6073 1.50239,10.0655 3.37968,10.002 L3.5,10 L7.10026,9.99881 Z M12,7 C14.2091,7 16,8.79086 16,11 C16,13.2091 14.2091,15 12,15 C9.79086,15 8,13.2091 8,11 C8,8.79086 9.79086,7 12,7 Z M12,9 C10.8954,9 10,9.89543 10,11 C10,12.1046 10.8954,13 12,13 C13.1046,13 14,12.1046 14,11 C14,9.89543 13.1046,9 12,9 Z M5.5,2 C7.433,2 9,3.567 9,5.5 C9,7.433 7.433,9 5.5,9 C3.567,9 2,7.433 2,5.5 C2,3.567 3.567,2 5.5,2 Z M18.5,2 C20.433,2 22,3.567 22,5.5 C22,7.433 20.433,9 18.5,9 C16.567,9 15,7.433 15,5.5 C15,3.567 16.567,2 18.5,2 Z M5.5,4 C4.67157,4 4,4.67157 4,5.5 C4,6.32843 4.67157,7 5.5,7 C6.32843,7 7,6.32843 7,5.5 C7,4.67157 6.32843,4 5.5,4 Z M18.5,4 C17.6716,4 17,4.67157 17,5.5 C17,6.32843 17.6716,7 18.5,7 C19.3284,7 20,6.32843 20,5.5 C20,4.67157 19.3284,4 18.5,4 Z" id="Color" fill="#000000"></path>
    </g>
</svg>