<?xml version="1.0" standalone="no"?>
<!DOCTYPE svg>
<svg version="1.0" xmlns="http://www.w3.org/2000/svg"
 width="300pt" height="291pt" viewBox="0 0 300 291"
 preserveAspectRatio="xMidYMid meet">
<g transform="translate(0.000000,291.000000) scale(0.050000,-0.050000)"
fill="#FFFFFF" stroke="none">
<path d="M1728 5662 c-175 -64 -243 -123 -842 -725 -632 -636 -662 -675 -711
-936 -55 -297 42 -514 388 -870 l253 -261 -253 -260 c-413 -425 -494 -710
-313 -1107 59 -128 1166 -1262 1320 -1351 393 -228 731 -148 1169 279 l261
255 261 -255 c435 -424 783 -507 1169 -280 156 92 1262 1225 1320 1353 182
399 103 681 -312 1105 l-254 261 253 260 c416 427 495 707 313 1106 -59 129
-1165 1262 -1320 1352 -394 229 -736 147 -1172 -281 l-258 -254 -258 254
c-383 375 -677 478 -1014 355z m512 -244 c64 -27 169 -116 340 -288 l248 -249
-134 -139 c-317 -328 -289 -442 239 -966 375 -371 410 -396 567 -396 160 0
191 23 680 510 538 535 588 570 830 570 347 0 609 -278 585 -620 -13 -190 -67
-278 -341 -554 l-242 -244 -151 144 c-321 307 -414 286 -918 -213 -610 -602
-610 -592 87 -1294 490 -493 532 -548 560 -742 56 -383 -302 -729 -683 -658
-162 30 -248 89 -506 349 l-229 231 131 135 c323 335 297 441 -246 979 -378
373 -475 438 -601 398 -14 -4 -53 -14 -86 -21 -43 -9 -196 -148 -540 -490
-549 -546 -598 -580 -840 -580 -347 0 -609 278 -585 620 13 190 67 278 340
554 l242 244 154 -145 c324 -305 412 -284 916 214 610 602 610 592 -87 1294
-535 538 -558 572 -558 819 0 438 423 712 828 538z"/>
</g>
</svg>
