<?xml version="1.0" encoding="UTF-8"?>
<svg width="24px" height="24px" viewBox="0 0 24 24" version="1.1" xmlns="http://www.w3.org/2000/svg" xmlns:xlink="http://www.w3.org/1999/xlink">
    <title>UI/Navigation/search</title>
    <g id="UI/Navigation/search" stroke="none" stroke-width="1" fill="none" fill-rule="evenodd">
        <rect id="Bounding-box" x="0" y="0" width="24" height="24"></rect>
        <path d="M15,1 C19.418278,1 23,4.581722 23,9 C23,13.418278 19.418278,17 15,17 C13.2000604,17 11.5389577,16.4055687 10.2022941,15.4023084 L3.80099026,21.8020581 L2.21,20.2110678 L8.60819873,13.8116731 C7.59858295,12.472622 7,10.8062143 7,9 C7,4.581722 10.581722,1 15,1 Z M15,3 C11.6862915,3 9,5.6862915 9,9 C9,12.3137085 11.6862915,15 15,15 C18.3137085,15 21,12.3137085 21,9 C21,5.6862915 18.3137085,3 15,3 Z" id="Color" fill="#ffffff"></path>
    </g>
</svg>
